<mxfile host="app.diagrams.net" modified="2023-05-26T13:14:02.218Z" agent="Mozilla/5.0 (Windows NT 10.0; Win64; x64) AppleWebKit/537.36 (KHTML, like Gecko) Chrome/112.0.0.0 Safari/537.36 OPR/98.0.0.0" version="21.3.4" etag="tKslzt9mnycAd82eIS6d" type="github">
  <diagram name="Page-1" id="McQcTR9SnVd89LAH94uy">
    <mxGraphModel>
      <root>
        <mxCell id="0" />
        <mxCell id="1" parent="0" />
      </root>
    </mxGraphModel>
  </diagram>
</mxfile>
